<svg id="Capa_1" data-name="Capa 1" xmlns="http://www.w3.org/2000/svg" xmlns:xlink="http://www.w3.org/1999/xlink" viewBox="0 0 500 500"><defs><style>.cls-1{fill:#ffcb00;}.cls-1,.cls-2,.cls-3{fill-rule:evenodd;}.cls-2{fill:#37474f;}.cls-3{opacity:0.1;isolation:isolate;fill:url(#Degradado_sin_nombre_4);}</style><radialGradient id="Degradado_sin_nombre_4" cx="-2600.97" cy="2038.23" r="17.58" gradientTransform="matrix(-6, 0, 0, 1.05, -15356, -1758.89)" gradientUnits="userSpaceOnUse"><stop offset="0" stop-color="#304346"/><stop offset="1" stop-color="#4b5759" stop-opacity="0"/></radialGradient></defs><g id="Group-2"><g id="Group-6"><g id="Group-3"><path id="Fill-1" class="cls-1" d="M249.8,369.32c-175.42,0-92.91-289.16,0-289.16,92.92.8,175.42,289.16,0,289.16"/></g><path id="Fill-4" class="cls-2" d="M282.64,123.1c.8,0-10.41,36-10.41,43.25,0,8,8,12,10.41,21.63.8,7.21-4,13.62-3.2,18.42,1.6,7.21,13.62,4.81,14.42,12-.8,8.81-6.41,13.61-8,21.62,2.4.8,4.8.8,5.6,1.61s-24,35.24-21.62,42.45c-4.81-5.61,1.6-12.82,4.8-18.42,3.21-6.41,7.21-12,8.81-18.43-.8-1.6-4.8,0-4.8-2.4,1.6-9.61,8-18.42,7.21-24,.8-2.4-10.42-10.41-19.23-16-6.41-3.2-8-7.21-29.63-5.61-1.61,0-5.61-1.6-5.61-4,5.61,8,14.42-2.41,24,0,7.21,1.6,16,5.6,18.42,5.6,1.6-2.4,4.81-4.8,3.21-11.21-1.61-5.61-8.82-8.81-10.42-16-2.4-8.81,4.81-26.43,4.81-26.43s9.61-24,11.21-24"/></g><path id="Fill-7" class="cls-3" d="M249.8,414.66c57.67,0,104.13-10.41,104.13-24s-46.46-24-104.13-24-104.13,10.41-104.13,24S192.13,414.66,249.8,414.66Z"/></g></svg>